<?xml version="1.0" encoding="UTF-8" standalone="no"?>
<!DOCTYPE svg PUBLIC "-//W3C//DTD SVG 1.1//EN"
 "http://www.w3.org/Graphics/SVG/1.1/DTD/svg11.dtd">
<!-- Generated by graphviz version 2.40.1 (20161225.0304)
 -->
<!-- Title: dependencies Pages: 1 -->
<svg width="1843pt" height="428pt"
 viewBox="0.00 0.00 1843.00 428.00" xmlns="http://www.w3.org/2000/svg" xmlns:xlink="http://www.w3.org/1999/xlink">
<g id="graph0" class="graph" transform="scale(1 1) rotate(0) translate(4 424)">
<title>dependencies</title>
<polygon fill="#ffffff" stroke="transparent" points="-4,4 -4,-424 1839,-424 1839,4 -4,4"/>
<text text-anchor="start" x="896.5091" y="-42.4" font-family="sans-serif" font-weight="bold" font-size="14.00" fill="#000000">Legend</text>
<polygon fill="#ffffb3" stroke="transparent" points="683.5,-10 683.5,-30 703.5,-30 703.5,-10 683.5,-10"/>
<text text-anchor="start" x="707.129" y="-15.4" font-family="sans-serif" font-size="14.00" fill="#000000"> &#160;Declarations</text>
<polygon fill="#8dd3c7" stroke="transparent" points="796.5,-10 796.5,-30 816.5,-30 816.5,-10 796.5,-10"/>
<text text-anchor="start" x="820.2251" y="-15.4" font-family="sans-serif" font-size="14.00" fill="#000000"> &#160;Module</text>
<polygon fill="#80b1d3" stroke="transparent" points="882.5,-10 882.5,-30 902.5,-30 902.5,-10 882.5,-10"/>
<text text-anchor="start" x="906.2812" y="-15.4" font-family="sans-serif" font-size="14.00" fill="#000000"> &#160;Bootstrap</text>
<polygon fill="#fdb462" stroke="transparent" points="979.5,-10 979.5,-30 999.5,-30 999.5,-10 979.5,-10"/>
<text text-anchor="start" x="1003.1732" y="-15.4" font-family="sans-serif" font-size="14.00" fill="#000000"> &#160;Providers</text>
<polygon fill="#fb8072" stroke="transparent" points="1075.5,-10 1075.5,-30 1095.5,-30 1095.5,-10 1075.5,-10"/>
<text text-anchor="start" x="1099.2258" y="-15.4" font-family="sans-serif" font-size="14.00" fill="#000000"> &#160;Exports</text>
<g id="clust1" class="cluster">
<title>cluster_AppModule</title>
<polygon fill="none" stroke="#000000" stroke-dasharray="1,5" points="544,-214 544,-412 1827,-412 1827,-214 544,-214"/>
</g>
<g id="clust2" class="cluster">
<title>cluster_AppModule_declarations</title>
<polygon fill="none" stroke="#000000" points="1328,-222 1328,-274 1819,-274 1819,-222 1328,-222"/>
</g>
<g id="clust6" class="cluster">
<title>cluster_AppModule_imports</title>
<polygon fill="none" stroke="#000000" points="960,-222 960,-274 1320,-274 1320,-222 960,-222"/>
</g>
<g id="clust8" class="cluster">
<title>cluster_AppModule_bootstrap</title>
<polygon fill="none" stroke="#000000" points="1146,-352 1146,-404 1270,-404 1270,-352 1146,-352"/>
</g>
<g id="clust9" class="cluster">
<title>cluster_AppModule_providers</title>
<polygon fill="none" stroke="#000000" points="552,-222 552,-274 952,-274 952,-222 552,-222"/>
</g>
<g id="clust10" class="cluster">
<title>cluster_FileUploadModule</title>
<polygon fill="none" stroke="#000000" stroke-dasharray="1,5" points="1104,-138 1104,-206 1280,-206 1280,-138 1104,-138"/>
</g>
<g id="clust11" class="cluster">
<title>cluster_FileUploadModule_declarations</title>
<polygon fill="none" stroke="#000000" points="1112,-146 1112,-198 1272,-198 1272,-146 1112,-146"/>
</g>
<g id="clust17" class="cluster">
<title>cluster_RFormModule</title>
<polygon fill="none" stroke="#000000" stroke-dasharray="1,5" points="8,-70 8,-206 1096,-206 1096,-70 8,-70"/>
</g>
<g id="clust18" class="cluster">
<title>cluster_RFormModule_declarations</title>
<polygon fill="none" stroke="#000000" points="408,-146 408,-198 957,-198 957,-146 408,-146"/>
</g>
<g id="clust19" class="cluster">
<title>cluster_RFormModule_DynamicFormComponent_providers</title>
<polygon fill="none" stroke="#000000" points="190,-78 190,-130 940,-130 940,-78 190,-78"/>
</g>
<g id="clust21" class="cluster">
<title>cluster_RFormModule_RFormComponent_providers</title>
<polygon fill="none" stroke="#000000" points="16,-78 16,-130 182,-130 182,-78 16,-78"/>
</g>
<g id="clust24" class="cluster">
<title>cluster_RFormModule_bootstrap</title>
<polygon fill="none" stroke="#000000" points="948,-78 948,-130 1088,-130 1088,-78 948,-78"/>
</g>
<g id="clust26" class="cluster">
<title>cluster_UserModule</title>
<polygon fill="none" stroke="#000000" stroke-dasharray="1,5" points="1288,-138 1288,-206 1610,-206 1610,-138 1288,-138"/>
</g>
<g id="clust27" class="cluster">
<title>cluster_UserModule_declarations</title>
<polygon fill="none" stroke="#000000" points="1296,-146 1296,-198 1602,-198 1602,-146 1296,-146"/>
</g>
<!-- AppComponent -->
<g id="node1" class="node">
<title>AppComponent</title>
<polygon fill="#ffffb3" stroke="#000000" points="1810.9399,-266 1705.0601,-266 1705.0601,-230 1810.9399,-230 1810.9399,-266"/>
<text text-anchor="middle" x="1758" y="-243.8" font-family="Times,serif" font-size="14.00" fill="#000000">AppComponent</text>
</g>
<!-- AppModule -->
<g id="node4" class="node">
<title>AppModule</title>
<polygon fill="#8dd3c7" stroke="#000000" points="1249.6571,-331 1246.6571,-335 1225.6571,-335 1222.6571,-331 1166.3429,-331 1166.3429,-295 1249.6571,-295 1249.6571,-331"/>
<text text-anchor="middle" x="1208" y="-308.8" font-family="Times,serif" font-size="14.00" fill="#000000">AppModule</text>
</g>
<!-- AppComponent&#45;&gt;AppModule -->
<g id="edge1" class="edge">
<title>AppComponent&#45;&gt;AppModule</title>
<path fill="none" stroke="#000000" d="M1758,-266.2921C1758,-288.2057 1758,-322 1758,-322 1758,-322 1259.7908,-322 1259.7908,-322"/>
<polygon fill="#000000" stroke="#000000" points="1259.7909,-318.5001 1249.7908,-322 1259.7908,-325.5001 1259.7909,-318.5001"/>
</g>
<!-- CountdownSnackbarComponent -->
<g id="node2" class="node">
<title>CountdownSnackbarComponent</title>
<polygon fill="#ffffb3" stroke="#000000" points="1687.2534,-266 1488.7466,-266 1488.7466,-230 1687.2534,-230 1687.2534,-266"/>
<text text-anchor="middle" x="1588" y="-243.8" font-family="Times,serif" font-size="14.00" fill="#000000">CountdownSnackbarComponent</text>
</g>
<!-- CountdownSnackbarComponent&#45;&gt;AppModule -->
<g id="edge2" class="edge">
<title>CountdownSnackbarComponent&#45;&gt;AppModule</title>
<path fill="none" stroke="#000000" d="M1588,-266.1061C1588,-285.3391 1588,-313 1588,-313 1588,-313 1259.7537,-313 1259.7537,-313"/>
<polygon fill="#000000" stroke="#000000" points="1259.7537,-309.5001 1249.7537,-313 1259.7536,-316.5001 1259.7537,-309.5001"/>
</g>
<!-- WelcomeComponent -->
<g id="node3" class="node">
<title>WelcomeComponent</title>
<polygon fill="#ffffb3" stroke="#000000" points="1470.472,-266 1335.528,-266 1335.528,-230 1470.472,-230 1470.472,-266"/>
<text text-anchor="middle" x="1403" y="-243.8" font-family="Times,serif" font-size="14.00" fill="#000000">WelcomeComponent</text>
</g>
<!-- WelcomeComponent&#45;&gt;AppModule -->
<g id="edge3" class="edge">
<title>WelcomeComponent&#45;&gt;AppModule</title>
<path fill="none" stroke="#000000" d="M1403,-266.027C1403,-282.3976 1403,-304 1403,-304 1403,-304 1259.8324,-304 1259.8324,-304"/>
<polygon fill="#000000" stroke="#000000" points="1259.8324,-300.5001 1249.8324,-304 1259.8324,-307.5001 1259.8324,-300.5001"/>
</g>
<!-- AppComponent  -->
<g id="node8" class="node">
<title>AppComponent </title>
<polygon fill="#80b1d3" stroke="#000000" points="1262.439,-396 1153.561,-396 1153.561,-360 1262.439,-360 1262.439,-396"/>
<text text-anchor="middle" x="1208" y="-373.8" font-family="Times,serif" font-size="14.00" fill="#000000">AppComponent </text>
</g>
<!-- AppModule&#45;&gt;AppComponent  -->
<g id="edge7" class="edge">
<title>AppModule&#45;&gt;AppComponent </title>
<path fill="none" stroke="#000000" stroke-dasharray="1,5" d="M1208,-331.1061C1208,-331.1061 1208,-349.991 1208,-349.991"/>
<polygon fill="#000000" stroke="#000000" points="1204.5001,-349.9909 1208,-359.991 1211.5001,-349.991 1204.5001,-349.9909"/>
</g>
<!-- FileUploadModule -->
<g id="node5" class="node">
<title>FileUploadModule</title>
<polygon fill="#8dd3c7" stroke="#000000" points="1208.0409,-266 1205.0409,-270 1184.0409,-270 1181.0409,-266 1085.9591,-266 1085.9591,-230 1208.0409,-230 1208.0409,-266"/>
<text text-anchor="middle" x="1147" y="-243.8" font-family="Times,serif" font-size="14.00" fill="#000000">FileUploadModule</text>
</g>
<!-- FileUploadModule&#45;&gt;AppModule -->
<g id="edge4" class="edge">
<title>FileUploadModule&#45;&gt;AppModule</title>
<path fill="none" stroke="#000000" d="M1187.2209,-266.1061C1187.2209,-266.1061 1187.2209,-284.991 1187.2209,-284.991"/>
<polygon fill="#000000" stroke="#000000" points="1183.721,-284.9909 1187.2209,-294.991 1190.721,-284.991 1183.721,-284.9909"/>
</g>
<!-- RFormModule -->
<g id="node6" class="node">
<title>RFormModule</title>
<polygon fill="#8dd3c7" stroke="#000000" points="1067.7204,-266 1064.7204,-270 1043.7204,-270 1040.7204,-266 968.2796,-266 968.2796,-230 1067.7204,-230 1067.7204,-266"/>
<text text-anchor="middle" x="1018" y="-243.8" font-family="Times,serif" font-size="14.00" fill="#000000">RFormModule</text>
</g>
<!-- RFormModule&#45;&gt;AppModule -->
<g id="edge5" class="edge">
<title>RFormModule&#45;&gt;AppModule</title>
<path fill="none" stroke="#000000" d="M1018,-266.027C1018,-282.3976 1018,-304 1018,-304 1018,-304 1156.3037,-304 1156.3037,-304"/>
<polygon fill="#000000" stroke="#000000" points="1156.3037,-307.5001 1166.3037,-304 1156.3037,-300.5001 1156.3037,-307.5001"/>
</g>
<!-- RFormComponent  -->
<g id="node18" class="node">
<title>RFormComponent </title>
<polygon fill="#80b1d3" stroke="#000000" points="1080.0038,-122 955.9962,-122 955.9962,-86 1080.0038,-86 1080.0038,-122"/>
<text text-anchor="middle" x="1018" y="-99.8" font-family="Times,serif" font-size="14.00" fill="#000000">RFormComponent </text>
</g>
<!-- RFormModule&#45;&gt;RFormComponent  -->
<g id="edge17" class="edge">
<title>RFormModule&#45;&gt;RFormComponent </title>
<path fill="none" stroke="#000000" stroke-dasharray="1,5" d="M1047.7661,-229.7623C1047.7661,-229.7623 1047.7661,-132.0896 1047.7661,-132.0896"/>
<polygon fill="#000000" stroke="#000000" points="1051.2662,-132.0896 1047.7661,-122.0896 1044.2662,-132.0897 1051.2662,-132.0896"/>
</g>
<!-- UserModule -->
<g id="node7" class="node">
<title>UserModule</title>
<polygon fill="#8dd3c7" stroke="#000000" points="1311.9762,-266 1308.9762,-270 1287.9762,-270 1284.9762,-266 1226.0238,-266 1226.0238,-230 1311.9762,-230 1311.9762,-266"/>
<text text-anchor="middle" x="1269" y="-243.8" font-family="Times,serif" font-size="14.00" fill="#000000">UserModule</text>
</g>
<!-- UserModule&#45;&gt;AppModule -->
<g id="edge6" class="edge">
<title>UserModule&#45;&gt;AppModule</title>
<path fill="none" stroke="#000000" d="M1237.9201,-266.1061C1237.9201,-266.1061 1237.9201,-284.991 1237.9201,-284.991"/>
<polygon fill="#000000" stroke="#000000" points="1234.4201,-284.9909 1237.9201,-294.991 1241.4201,-284.991 1234.4201,-284.9909"/>
</g>
<!-- CountdownService -->
<g id="node9" class="node">
<title>CountdownService</title>
<ellipse fill="#fdb462" stroke="#000000" cx="859" cy="-248" rx="85.1159" ry="18"/>
<text text-anchor="middle" x="859" y="-243.8" font-family="Times,serif" font-size="14.00" fill="#000000">CountdownService</text>
</g>
<!-- CountdownService&#45;&gt;AppModule -->
<g id="edge8" class="edge">
<title>CountdownService&#45;&gt;AppModule</title>
<path fill="none" stroke="#000000" d="M859,-266.1061C859,-285.3391 859,-313 859,-313 859,-313 1156.2491,-313 1156.2491,-313"/>
<polygon fill="#000000" stroke="#000000" points="1156.2491,-316.5001 1166.2491,-313 1156.2491,-309.5001 1156.2491,-316.5001"/>
</g>
<!-- StateParameterService -->
<g id="node10" class="node">
<title>StateParameterService</title>
<ellipse fill="#fdb462" stroke="#000000" cx="658" cy="-248" rx="98.3831" ry="18"/>
<text text-anchor="middle" x="658" y="-243.8" font-family="Times,serif" font-size="14.00" fill="#000000">StateParameterService</text>
</g>
<!-- StateParameterService&#45;&gt;AppModule -->
<g id="edge9" class="edge">
<title>StateParameterService&#45;&gt;AppModule</title>
<path fill="none" stroke="#000000" d="M658,-266.2921C658,-288.2057 658,-322 658,-322 658,-322 1156.2092,-322 1156.2092,-322"/>
<polygon fill="#000000" stroke="#000000" points="1156.2092,-325.5001 1166.2092,-322 1156.2091,-318.5001 1156.2092,-325.5001"/>
</g>
<!-- FileUploadComponent -->
<g id="node11" class="node">
<title>FileUploadComponent</title>
<polygon fill="#ffffb3" stroke="#000000" points="1264.323,-190 1119.677,-190 1119.677,-154 1264.323,-154 1264.323,-190"/>
<text text-anchor="middle" x="1192" y="-167.8" font-family="Times,serif" font-size="14.00" fill="#000000">FileUploadComponent</text>
</g>
<!-- FileUploadComponent&#45;&gt;FileUploadModule -->
<g id="edge10" class="edge">
<title>FileUploadComponent&#45;&gt;FileUploadModule</title>
<path fill="none" stroke="#000000" d="M1164.0543,-190.0109C1164.0543,-190.0109 1164.0543,-219.855 1164.0543,-219.855"/>
<polygon fill="#000000" stroke="#000000" points="1160.5544,-219.8549 1164.0543,-229.855 1167.5544,-219.855 1160.5544,-219.8549"/>
</g>
<!-- DynamicFormComponent -->
<g id="node12" class="node">
<title>DynamicFormComponent</title>
<polygon fill="#ffffb3" stroke="#000000" points="949.4832,-190 786.5168,-190 786.5168,-154 949.4832,-154 949.4832,-190"/>
<text text-anchor="middle" x="868" y="-167.8" font-family="Times,serif" font-size="14.00" fill="#000000">DynamicFormComponent</text>
</g>
<!-- DynamicFormComponent&#45;&gt;RFormModule -->
<g id="edge11" class="edge">
<title>DynamicFormComponent&#45;&gt;RFormModule</title>
<path fill="none" stroke="#000000" d="M949.8349,-172C989.1811,-172 1027.922,-172 1027.922,-172 1027.922,-172 1027.922,-219.9891 1027.922,-219.9891"/>
<polygon fill="#000000" stroke="#000000" points="1024.4221,-219.989 1027.922,-229.9891 1031.4221,-219.9891 1024.4221,-219.989"/>
</g>
<!-- DynamicFormQuestionComponent -->
<g id="node13" class="node">
<title>DynamicFormQuestionComponent</title>
<polygon fill="#ffffb3" stroke="#000000" points="768.5307,-190 555.4693,-190 555.4693,-154 768.5307,-154 768.5307,-190"/>
<text text-anchor="middle" x="662" y="-167.8" font-family="Times,serif" font-size="14.00" fill="#000000">DynamicFormQuestionComponent</text>
</g>
<!-- DynamicFormQuestionComponent&#45;&gt;RFormModule -->
<g id="edge14" class="edge">
<title>DynamicFormQuestionComponent&#45;&gt;RFormModule</title>
<path fill="none" stroke="#000000" d="M762.6033,-190.207C762.6033,-195.5549 762.6033,-200 762.6033,-200 762.6033,-200 1008.078,-200 1008.078,-200 1008.078,-200 1008.078,-219.8533 1008.078,-219.8533"/>
<polygon fill="#000000" stroke="#000000" points="1004.5781,-219.8532 1008.078,-229.8533 1011.5781,-219.8533 1004.5781,-219.8532"/>
</g>
<!-- RFormComponent -->
<g id="node14" class="node">
<title>RFormComponent</title>
<polygon fill="#ffffb3" stroke="#000000" points="537.5028,-190 416.4972,-190 416.4972,-154 537.5028,-154 537.5028,-190"/>
<text text-anchor="middle" x="477" y="-167.8" font-family="Times,serif" font-size="14.00" fill="#000000">RFormComponent</text>
</g>
<!-- RFormComponent&#45;&gt;RFormModule -->
<g id="edge15" class="edge">
<title>RFormComponent&#45;&gt;RFormModule</title>
<path fill="none" stroke="#000000" d="M477,-190.1097C477,-199.897 477,-210 477,-210 477,-210 988.2339,-210 988.2339,-210 988.2339,-210 988.2339,-219.8903 988.2339,-219.8903"/>
<polygon fill="#000000" stroke="#000000" points="984.734,-219.8903 988.2339,-229.8903 991.734,-219.8904 984.734,-219.8903"/>
</g>
<!-- QuestionControlService -->
<g id="node15" class="node">
<title>QuestionControlService</title>
<ellipse fill="#fdb462" stroke="#000000" cx="828" cy="-104" rx="104.2323" ry="18"/>
<text text-anchor="middle" x="828" y="-99.8" font-family="Times,serif" font-size="14.00" fill="#000000">QuestionControlService</text>
</g>
<!-- QuestionControlService&#45;&gt;DynamicFormComponent -->
<g id="edge12" class="edge">
<title>QuestionControlService&#45;&gt;DynamicFormComponent</title>
<path fill="none" stroke="#000000" d="M883.7468,-119.4303C883.7468,-119.4303 883.7468,-143.7353 883.7468,-143.7353"/>
<polygon fill="#000000" stroke="#000000" points="880.2469,-143.7353 883.7468,-153.7353 887.2469,-143.7354 880.2469,-143.7353"/>
</g>
<!-- { provide: LocationStrategy, useClass: PathLocationStrategy } -->
<g id="node16" class="node">
<title>{ provide: LocationStrategy, useClass: PathLocationStrategy }</title>
<ellipse fill="#fdb462" stroke="#000000" cx="452" cy="-104" rx="253.7592" ry="18"/>
<text text-anchor="middle" x="452" y="-99.8" font-family="Times,serif" font-size="14.00" fill="#000000">{ provide: LocationStrategy, useClass: PathLocationStrategy }</text>
</g>
<!-- { provide: LocationStrategy, useClass: PathLocationStrategy }&#45;&gt;DynamicFormComponent -->
<g id="edge13" class="edge">
<title>{ provide: LocationStrategy, useClass: PathLocationStrategy }&#45;&gt;DynamicFormComponent</title>
<path fill="none" stroke="#000000" d="M630.4322,-117.048C630.4322,-126.6362 630.4322,-138 630.4322,-138 630.4322,-138 835.1276,-138 835.1276,-138 835.1276,-138 835.1276,-143.8056 835.1276,-143.8056"/>
<polygon fill="#000000" stroke="#000000" points="831.6277,-143.8055 835.1276,-153.8056 838.6277,-143.8056 831.6277,-143.8055"/>
</g>
<!-- QuestionService -->
<g id="node17" class="node">
<title>QuestionService</title>
<ellipse fill="#fdb462" stroke="#000000" cx="99" cy="-104" rx="74.7168" ry="18"/>
<text text-anchor="middle" x="99" y="-99.8" font-family="Times,serif" font-size="14.00" fill="#000000">QuestionService</text>
</g>
<!-- QuestionService&#45;&gt;RFormComponent -->
<g id="edge16" class="edge">
<title>QuestionService&#45;&gt;RFormComponent</title>
<path fill="none" stroke="#000000" d="M99,-122.2228C99,-142.3652 99,-172 99,-172 99,-172 406.2678,-172 406.2678,-172"/>
<polygon fill="#000000" stroke="#000000" points="406.2678,-175.5001 416.2678,-172 406.2677,-168.5001 406.2678,-175.5001"/>
</g>
<!-- UserDetailComponent -->
<g id="node19" class="node">
<title>UserDetailComponent</title>
<polygon fill="#ffffb3" stroke="#000000" points="1593.9664,-190 1452.0336,-190 1452.0336,-154 1593.9664,-154 1593.9664,-190"/>
<text text-anchor="middle" x="1523" y="-167.8" font-family="Times,serif" font-size="14.00" fill="#000000">UserDetailComponent</text>
</g>
<!-- UserDetailComponent&#45;&gt;UserModule -->
<g id="edge18" class="edge">
<title>UserDetailComponent&#45;&gt;UserModule</title>
<path fill="none" stroke="#000000" d="M1461.2514,-190.1467C1461.2514,-203.7395 1461.2514,-220 1461.2514,-220 1461.2514,-220 1309.4025,-220 1309.4025,-220 1309.4025,-220 1309.4025,-220.9793 1309.4025,-220.9793"/>
<polygon fill="#000000" stroke="#000000" points="1305.9026,-219.793 1309.4025,-229.793 1312.9026,-219.7931 1305.9026,-219.793"/>
</g>
<!-- UserListComponent -->
<g id="node20" class="node">
<title>UserListComponent</title>
<polygon fill="#ffffb3" stroke="#000000" points="1433.538,-190 1304.462,-190 1304.462,-154 1433.538,-154 1433.538,-190"/>
<text text-anchor="middle" x="1369" y="-167.8" font-family="Times,serif" font-size="14.00" fill="#000000">UserListComponent</text>
</g>
<!-- UserListComponent&#45;&gt;UserModule -->
<g id="edge19" class="edge">
<title>UserListComponent&#45;&gt;UserModule</title>
<path fill="none" stroke="#000000" d="M1306.817,-190.0109C1306.817,-190.0109 1306.817,-219.855 1306.817,-219.855"/>
<polygon fill="#000000" stroke="#000000" points="1303.3171,-219.8549 1306.817,-229.855 1310.3171,-219.855 1303.3171,-219.8549"/>
</g>
</g>
</svg>
