<?xml version="1.0" encoding="UTF-8" standalone="no"?>
<!DOCTYPE svg PUBLIC "-//W3C//DTD SVG 1.1//EN"
 "http://www.w3.org/Graphics/SVG/1.1/DTD/svg11.dtd">
<!-- Generated by graphviz version 2.40.1 (20161225.0304)
 -->
<!-- Title: dependencies Pages: 1 -->
<svg width="1691pt" height="428pt"
 viewBox="0.00 0.00 1691.00 428.00" xmlns="http://www.w3.org/2000/svg" xmlns:xlink="http://www.w3.org/1999/xlink">
<g id="graph0" class="graph" transform="scale(1 1) rotate(0) translate(4 424)">
<title>dependencies</title>
<polygon fill="#ffffff" stroke="transparent" points="-4,4 -4,-424 1687,-424 1687,4 -4,4"/>
<text text-anchor="start" x="820.5091" y="-42.4" font-family="sans-serif" font-weight="bold" font-size="14.00" fill="#000000">Legend</text>
<polygon fill="#ffffb3" stroke="transparent" points="607.5,-10 607.5,-30 627.5,-30 627.5,-10 607.5,-10"/>
<text text-anchor="start" x="631.129" y="-15.4" font-family="sans-serif" font-size="14.00" fill="#000000"> &#160;Declarations</text>
<polygon fill="#8dd3c7" stroke="transparent" points="720.5,-10 720.5,-30 740.5,-30 740.5,-10 720.5,-10"/>
<text text-anchor="start" x="744.2251" y="-15.4" font-family="sans-serif" font-size="14.00" fill="#000000"> &#160;Module</text>
<polygon fill="#80b1d3" stroke="transparent" points="806.5,-10 806.5,-30 826.5,-30 826.5,-10 806.5,-10"/>
<text text-anchor="start" x="830.2812" y="-15.4" font-family="sans-serif" font-size="14.00" fill="#000000"> &#160;Bootstrap</text>
<polygon fill="#fdb462" stroke="transparent" points="903.5,-10 903.5,-30 923.5,-30 923.5,-10 903.5,-10"/>
<text text-anchor="start" x="927.1732" y="-15.4" font-family="sans-serif" font-size="14.00" fill="#000000"> &#160;Providers</text>
<polygon fill="#fb8072" stroke="transparent" points="999.5,-10 999.5,-30 1019.5,-30 1019.5,-10 999.5,-10"/>
<text text-anchor="start" x="1023.2258" y="-15.4" font-family="sans-serif" font-size="14.00" fill="#000000"> &#160;Exports</text>
<g id="clust1" class="cluster">
<title>cluster_AppModule</title>
<polygon fill="none" stroke="#000000" stroke-dasharray="1,5" points="392,-214 392,-412 1675,-412 1675,-214 392,-214"/>
</g>
<g id="clust2" class="cluster">
<title>cluster_AppModule_declarations</title>
<polygon fill="none" stroke="#000000" points="1176,-222 1176,-274 1667,-274 1667,-222 1176,-222"/>
</g>
<g id="clust6" class="cluster">
<title>cluster_AppModule_imports</title>
<polygon fill="none" stroke="#000000" points="808,-222 808,-274 1168,-274 1168,-222 808,-222"/>
</g>
<g id="clust8" class="cluster">
<title>cluster_AppModule_bootstrap</title>
<polygon fill="none" stroke="#000000" points="994,-352 994,-404 1118,-404 1118,-352 994,-352"/>
</g>
<g id="clust9" class="cluster">
<title>cluster_AppModule_providers</title>
<polygon fill="none" stroke="#000000" points="400,-222 400,-274 800,-274 800,-222 400,-222"/>
</g>
<g id="clust10" class="cluster">
<title>cluster_FileUploadModule</title>
<polygon fill="none" stroke="#000000" stroke-dasharray="1,5" points="930,-138 930,-206 1106,-206 1106,-138 930,-138"/>
</g>
<g id="clust11" class="cluster">
<title>cluster_FileUploadModule_declarations</title>
<polygon fill="none" stroke="#000000" points="938,-146 938,-198 1098,-198 1098,-146 938,-146"/>
</g>
<g id="clust17" class="cluster">
<title>cluster_RFormModule</title>
<polygon fill="none" stroke="#000000" stroke-dasharray="1,5" points="8,-70 8,-206 922,-206 922,-70 8,-70"/>
</g>
<g id="clust18" class="cluster">
<title>cluster_RFormModule_declarations</title>
<polygon fill="none" stroke="#000000" points="297,-146 297,-198 846,-198 846,-146 297,-146"/>
</g>
<g id="clust19" class="cluster">
<title>cluster_RFormModule_DynamicFormComponent_providers</title>
<polygon fill="none" stroke="#000000" points="16,-78 16,-130 766,-130 766,-78 16,-78"/>
</g>
<g id="clust24" class="cluster">
<title>cluster_RFormModule_bootstrap</title>
<polygon fill="none" stroke="#000000" points="774,-78 774,-130 914,-130 914,-78 774,-78"/>
</g>
<g id="clust26" class="cluster">
<title>cluster_UserModule</title>
<polygon fill="none" stroke="#000000" stroke-dasharray="1,5" points="1114,-138 1114,-206 1436,-206 1436,-138 1114,-138"/>
</g>
<g id="clust27" class="cluster">
<title>cluster_UserModule_declarations</title>
<polygon fill="none" stroke="#000000" points="1122,-146 1122,-198 1428,-198 1428,-146 1122,-146"/>
</g>
<!-- AppComponent -->
<g id="node1" class="node">
<title>AppComponent</title>
<polygon fill="#ffffb3" stroke="#000000" points="1658.9399,-266 1553.0601,-266 1553.0601,-230 1658.9399,-230 1658.9399,-266"/>
<text text-anchor="middle" x="1606" y="-243.8" font-family="Times,serif" font-size="14.00" fill="#000000">AppComponent</text>
</g>
<!-- AppModule -->
<g id="node4" class="node">
<title>AppModule</title>
<polygon fill="#8dd3c7" stroke="#000000" points="1097.6571,-331 1094.6571,-335 1073.6571,-335 1070.6571,-331 1014.3429,-331 1014.3429,-295 1097.6571,-295 1097.6571,-331"/>
<text text-anchor="middle" x="1056" y="-308.8" font-family="Times,serif" font-size="14.00" fill="#000000">AppModule</text>
</g>
<!-- AppComponent&#45;&gt;AppModule -->
<g id="edge1" class="edge">
<title>AppComponent&#45;&gt;AppModule</title>
<path fill="none" stroke="#000000" d="M1606,-266.2921C1606,-288.2057 1606,-322 1606,-322 1606,-322 1107.7908,-322 1107.7908,-322"/>
<polygon fill="#000000" stroke="#000000" points="1107.7909,-318.5001 1097.7908,-322 1107.7908,-325.5001 1107.7909,-318.5001"/>
</g>
<!-- CountdownSnackbarComponent -->
<g id="node2" class="node">
<title>CountdownSnackbarComponent</title>
<polygon fill="#ffffb3" stroke="#000000" points="1535.2534,-266 1336.7466,-266 1336.7466,-230 1535.2534,-230 1535.2534,-266"/>
<text text-anchor="middle" x="1436" y="-243.8" font-family="Times,serif" font-size="14.00" fill="#000000">CountdownSnackbarComponent</text>
</g>
<!-- CountdownSnackbarComponent&#45;&gt;AppModule -->
<g id="edge2" class="edge">
<title>CountdownSnackbarComponent&#45;&gt;AppModule</title>
<path fill="none" stroke="#000000" d="M1436,-266.1061C1436,-285.3391 1436,-313 1436,-313 1436,-313 1107.7537,-313 1107.7537,-313"/>
<polygon fill="#000000" stroke="#000000" points="1107.7537,-309.5001 1097.7537,-313 1107.7536,-316.5001 1107.7537,-309.5001"/>
</g>
<!-- WelcomeComponent -->
<g id="node3" class="node">
<title>WelcomeComponent</title>
<polygon fill="#ffffb3" stroke="#000000" points="1318.472,-266 1183.528,-266 1183.528,-230 1318.472,-230 1318.472,-266"/>
<text text-anchor="middle" x="1251" y="-243.8" font-family="Times,serif" font-size="14.00" fill="#000000">WelcomeComponent</text>
</g>
<!-- WelcomeComponent&#45;&gt;AppModule -->
<g id="edge3" class="edge">
<title>WelcomeComponent&#45;&gt;AppModule</title>
<path fill="none" stroke="#000000" d="M1251,-266.027C1251,-282.3976 1251,-304 1251,-304 1251,-304 1107.8324,-304 1107.8324,-304"/>
<polygon fill="#000000" stroke="#000000" points="1107.8324,-300.5001 1097.8324,-304 1107.8324,-307.5001 1107.8324,-300.5001"/>
</g>
<!-- AppComponent  -->
<g id="node8" class="node">
<title>AppComponent </title>
<polygon fill="#80b1d3" stroke="#000000" points="1110.439,-396 1001.561,-396 1001.561,-360 1110.439,-360 1110.439,-396"/>
<text text-anchor="middle" x="1056" y="-373.8" font-family="Times,serif" font-size="14.00" fill="#000000">AppComponent </text>
</g>
<!-- AppModule&#45;&gt;AppComponent  -->
<g id="edge7" class="edge">
<title>AppModule&#45;&gt;AppComponent </title>
<path fill="none" stroke="#000000" stroke-dasharray="1,5" d="M1056,-331.1061C1056,-331.1061 1056,-349.991 1056,-349.991"/>
<polygon fill="#000000" stroke="#000000" points="1052.5001,-349.9909 1056,-359.991 1059.5001,-349.991 1052.5001,-349.9909"/>
</g>
<!-- FileUploadModule -->
<g id="node5" class="node">
<title>FileUploadModule</title>
<polygon fill="#8dd3c7" stroke="#000000" points="1056.0409,-266 1053.0409,-270 1032.0409,-270 1029.0409,-266 933.9591,-266 933.9591,-230 1056.0409,-230 1056.0409,-266"/>
<text text-anchor="middle" x="995" y="-243.8" font-family="Times,serif" font-size="14.00" fill="#000000">FileUploadModule</text>
</g>
<!-- FileUploadModule&#45;&gt;AppModule -->
<g id="edge4" class="edge">
<title>FileUploadModule&#45;&gt;AppModule</title>
<path fill="none" stroke="#000000" d="M1035.2209,-266.1061C1035.2209,-266.1061 1035.2209,-284.991 1035.2209,-284.991"/>
<polygon fill="#000000" stroke="#000000" points="1031.721,-284.9909 1035.2209,-294.991 1038.721,-284.991 1031.721,-284.9909"/>
</g>
<!-- RFormModule -->
<g id="node6" class="node">
<title>RFormModule</title>
<polygon fill="#8dd3c7" stroke="#000000" points="915.7204,-266 912.7204,-270 891.7204,-270 888.7204,-266 816.2796,-266 816.2796,-230 915.7204,-230 915.7204,-266"/>
<text text-anchor="middle" x="866" y="-243.8" font-family="Times,serif" font-size="14.00" fill="#000000">RFormModule</text>
</g>
<!-- RFormModule&#45;&gt;AppModule -->
<g id="edge5" class="edge">
<title>RFormModule&#45;&gt;AppModule</title>
<path fill="none" stroke="#000000" d="M866,-266.027C866,-282.3976 866,-304 866,-304 866,-304 1004.3037,-304 1004.3037,-304"/>
<polygon fill="#000000" stroke="#000000" points="1004.3037,-307.5001 1014.3037,-304 1004.3037,-300.5001 1004.3037,-307.5001"/>
</g>
<!-- RFormComponent  -->
<g id="node17" class="node">
<title>RFormComponent </title>
<polygon fill="#80b1d3" stroke="#000000" points="906.0038,-122 781.9962,-122 781.9962,-86 906.0038,-86 906.0038,-122"/>
<text text-anchor="middle" x="844" y="-99.8" font-family="Times,serif" font-size="14.00" fill="#000000">RFormComponent </text>
</g>
<!-- RFormModule&#45;&gt;RFormComponent  -->
<g id="edge16" class="edge">
<title>RFormModule&#45;&gt;RFormComponent </title>
<path fill="none" stroke="#000000" stroke-dasharray="1,5" d="M872.3715,-229.7623C872.3715,-229.7623 872.3715,-132.0896 872.3715,-132.0896"/>
<polygon fill="#000000" stroke="#000000" points="875.8716,-132.0896 872.3715,-122.0896 868.8716,-132.0897 875.8716,-132.0896"/>
</g>
<!-- UserModule -->
<g id="node7" class="node">
<title>UserModule</title>
<polygon fill="#8dd3c7" stroke="#000000" points="1159.9762,-266 1156.9762,-270 1135.9762,-270 1132.9762,-266 1074.0238,-266 1074.0238,-230 1159.9762,-230 1159.9762,-266"/>
<text text-anchor="middle" x="1117" y="-243.8" font-family="Times,serif" font-size="14.00" fill="#000000">UserModule</text>
</g>
<!-- UserModule&#45;&gt;AppModule -->
<g id="edge6" class="edge">
<title>UserModule&#45;&gt;AppModule</title>
<path fill="none" stroke="#000000" d="M1085.9201,-266.1061C1085.9201,-266.1061 1085.9201,-284.991 1085.9201,-284.991"/>
<polygon fill="#000000" stroke="#000000" points="1082.4201,-284.9909 1085.9201,-294.991 1089.4201,-284.991 1082.4201,-284.9909"/>
</g>
<!-- CountdownService -->
<g id="node9" class="node">
<title>CountdownService</title>
<ellipse fill="#fdb462" stroke="#000000" cx="707" cy="-248" rx="85.1159" ry="18"/>
<text text-anchor="middle" x="707" y="-243.8" font-family="Times,serif" font-size="14.00" fill="#000000">CountdownService</text>
</g>
<!-- CountdownService&#45;&gt;AppModule -->
<g id="edge8" class="edge">
<title>CountdownService&#45;&gt;AppModule</title>
<path fill="none" stroke="#000000" d="M707,-266.1061C707,-285.3391 707,-313 707,-313 707,-313 1004.2491,-313 1004.2491,-313"/>
<polygon fill="#000000" stroke="#000000" points="1004.2491,-316.5001 1014.2491,-313 1004.2491,-309.5001 1004.2491,-316.5001"/>
</g>
<!-- StateParameterService -->
<g id="node10" class="node">
<title>StateParameterService</title>
<ellipse fill="#fdb462" stroke="#000000" cx="506" cy="-248" rx="98.3831" ry="18"/>
<text text-anchor="middle" x="506" y="-243.8" font-family="Times,serif" font-size="14.00" fill="#000000">StateParameterService</text>
</g>
<!-- StateParameterService&#45;&gt;AppModule -->
<g id="edge9" class="edge">
<title>StateParameterService&#45;&gt;AppModule</title>
<path fill="none" stroke="#000000" d="M506,-266.2921C506,-288.2057 506,-322 506,-322 506,-322 1004.2092,-322 1004.2092,-322"/>
<polygon fill="#000000" stroke="#000000" points="1004.2092,-325.5001 1014.2092,-322 1004.2091,-318.5001 1004.2092,-325.5001"/>
</g>
<!-- FileUploadComponent -->
<g id="node11" class="node">
<title>FileUploadComponent</title>
<polygon fill="#ffffb3" stroke="#000000" points="1090.323,-190 945.677,-190 945.677,-154 1090.323,-154 1090.323,-190"/>
<text text-anchor="middle" x="1018" y="-167.8" font-family="Times,serif" font-size="14.00" fill="#000000">FileUploadComponent</text>
</g>
<!-- FileUploadComponent&#45;&gt;FileUploadModule -->
<g id="edge10" class="edge">
<title>FileUploadComponent&#45;&gt;FileUploadModule</title>
<path fill="none" stroke="#000000" d="M1001.0544,-190.0109C1001.0544,-190.0109 1001.0544,-219.855 1001.0544,-219.855"/>
<polygon fill="#000000" stroke="#000000" points="997.5544,-219.8549 1001.0544,-229.855 1004.5544,-219.855 997.5544,-219.8549"/>
</g>
<!-- DynamicFormComponent -->
<g id="node12" class="node">
<title>DynamicFormComponent</title>
<polygon fill="#ffffb3" stroke="#000000" points="838.4832,-190 675.5168,-190 675.5168,-154 838.4832,-154 838.4832,-190"/>
<text text-anchor="middle" x="757" y="-167.8" font-family="Times,serif" font-size="14.00" fill="#000000">DynamicFormComponent</text>
</g>
<!-- DynamicFormComponent&#45;&gt;RFormModule -->
<g id="edge11" class="edge">
<title>DynamicFormComponent&#45;&gt;RFormModule</title>
<path fill="none" stroke="#000000" d="M832.9662,-190.0109C832.9662,-190.0109 832.9662,-219.855 832.9662,-219.855"/>
<polygon fill="#000000" stroke="#000000" points="829.4663,-219.8549 832.9662,-229.855 836.4663,-219.855 829.4663,-219.8549"/>
</g>
<!-- DynamicFormQuestionComponent -->
<g id="node13" class="node">
<title>DynamicFormQuestionComponent</title>
<polygon fill="#ffffb3" stroke="#000000" points="657.5307,-190 444.4693,-190 444.4693,-154 657.5307,-154 657.5307,-190"/>
<text text-anchor="middle" x="551" y="-167.8" font-family="Times,serif" font-size="14.00" fill="#000000">DynamicFormQuestionComponent</text>
</g>
<!-- DynamicFormQuestionComponent&#45;&gt;RFormModule -->
<g id="edge14" class="edge">
<title>DynamicFormQuestionComponent&#45;&gt;RFormModule</title>
<path fill="none" stroke="#000000" d="M639.8536,-190.207C639.8536,-195.5549 639.8536,-200 639.8536,-200 639.8536,-200 827.4408,-200 827.4408,-200 827.4408,-200 827.4408,-219.8533 827.4408,-219.8533"/>
<polygon fill="#000000" stroke="#000000" points="823.9408,-219.8532 827.4408,-229.8533 830.9408,-219.8533 823.9408,-219.8532"/>
</g>
<!-- RFormComponent -->
<g id="node14" class="node">
<title>RFormComponent</title>
<polygon fill="#ffffb3" stroke="#000000" points="426.5028,-190 305.4972,-190 305.4972,-154 426.5028,-154 426.5028,-190"/>
<text text-anchor="middle" x="366" y="-167.8" font-family="Times,serif" font-size="14.00" fill="#000000">RFormComponent</text>
</g>
<!-- RFormComponent&#45;&gt;RFormModule -->
<g id="edge15" class="edge">
<title>RFormComponent&#45;&gt;RFormModule</title>
<path fill="none" stroke="#000000" d="M417.0299,-190.1097C417.0299,-199.897 417.0299,-210 417.0299,-210 417.0299,-210 821.9153,-210 821.9153,-210 821.9153,-210 821.9153,-219.8903 821.9153,-219.8903"/>
<polygon fill="#000000" stroke="#000000" points="818.4154,-219.8903 821.9153,-229.8903 825.4154,-219.8904 818.4154,-219.8903"/>
</g>
<!-- QuestionControlService -->
<g id="node15" class="node">
<title>QuestionControlService</title>
<ellipse fill="#fdb462" stroke="#000000" cx="654" cy="-104" rx="104.2323" ry="18"/>
<text text-anchor="middle" x="654" y="-99.8" font-family="Times,serif" font-size="14.00" fill="#000000">QuestionControlService</text>
</g>
<!-- QuestionControlService&#45;&gt;DynamicFormComponent -->
<g id="edge12" class="edge">
<title>QuestionControlService&#45;&gt;DynamicFormComponent</title>
<path fill="none" stroke="#000000" d="M730.7468,-116.4722C730.7468,-116.4722 730.7468,-143.9697 730.7468,-143.9697"/>
<polygon fill="#000000" stroke="#000000" points="727.2469,-143.9697 730.7468,-153.9697 734.2469,-143.9697 727.2469,-143.9697"/>
</g>
<!-- { provide: LocationStrategy, useClass: PathLocationStrategy } -->
<g id="node16" class="node">
<title>{ provide: LocationStrategy, useClass: PathLocationStrategy }</title>
<ellipse fill="#fdb462" stroke="#000000" cx="278" cy="-104" rx="253.7592" ry="18"/>
<text text-anchor="middle" x="278" y="-99.8" font-family="Times,serif" font-size="14.00" fill="#000000">{ provide: LocationStrategy, useClass: PathLocationStrategy }</text>
</g>
<!-- { provide: LocationStrategy, useClass: PathLocationStrategy }&#45;&gt;DynamicFormComponent -->
<g id="edge13" class="edge">
<title>{ provide: LocationStrategy, useClass: PathLocationStrategy }&#45;&gt;DynamicFormComponent</title>
<path fill="none" stroke="#000000" d="M487.9322,-114.3859C487.9322,-124.3846 487.9322,-138 487.9322,-138 487.9322,-138 703.1276,-138 703.1276,-138 703.1276,-138 703.1276,-143.8056 703.1276,-143.8056"/>
<polygon fill="#000000" stroke="#000000" points="699.6277,-143.8055 703.1276,-153.8056 706.6277,-143.8056 699.6277,-143.8055"/>
</g>
<!-- UserDetailComponent -->
<g id="node18" class="node">
<title>UserDetailComponent</title>
<polygon fill="#ffffb3" stroke="#000000" points="1419.9664,-190 1278.0336,-190 1278.0336,-154 1419.9664,-154 1419.9664,-190"/>
<text text-anchor="middle" x="1349" y="-167.8" font-family="Times,serif" font-size="14.00" fill="#000000">UserDetailComponent</text>
</g>
<!-- UserDetailComponent&#45;&gt;UserModule -->
<g id="edge17" class="edge">
<title>UserDetailComponent&#45;&gt;UserModule</title>
<path fill="none" stroke="#000000" d="M1298.2514,-190.1467C1298.2514,-203.7395 1298.2514,-220 1298.2514,-220 1298.2514,-220 1150.0692,-220 1150.0692,-220 1150.0692,-220 1150.0692,-220.9793 1150.0692,-220.9793"/>
<polygon fill="#000000" stroke="#000000" points="1146.5693,-219.793 1150.0692,-229.793 1153.5693,-219.7931 1146.5693,-219.793"/>
</g>
<!-- UserListComponent -->
<g id="node19" class="node">
<title>UserListComponent</title>
<polygon fill="#ffffb3" stroke="#000000" points="1259.538,-190 1130.462,-190 1130.462,-154 1259.538,-154 1259.538,-190"/>
<text text-anchor="middle" x="1195" y="-167.8" font-family="Times,serif" font-size="14.00" fill="#000000">UserListComponent</text>
</g>
<!-- UserListComponent&#45;&gt;UserModule -->
<g id="edge18" class="edge">
<title>UserListComponent&#45;&gt;UserModule</title>
<path fill="none" stroke="#000000" d="M1140.1503,-190.0109C1140.1503,-190.0109 1140.1503,-219.855 1140.1503,-219.855"/>
<polygon fill="#000000" stroke="#000000" points="1136.6504,-219.8549 1140.1503,-229.855 1143.6504,-219.855 1136.6504,-219.8549"/>
</g>
</g>
</svg>
