<?xml version="1.0" encoding="UTF-8" standalone="no"?>
<!DOCTYPE svg PUBLIC "-//W3C//DTD SVG 1.1//EN"
 "http://www.w3.org/Graphics/SVG/1.1/DTD/svg11.dtd">
<!-- Generated by graphviz version 2.40.1 (20161225.0304)
 -->
<!-- Title: dependencies Pages: 1 -->
<svg width="964pt" height="349pt"
 viewBox="0.00 0.00 964.00 349.00" xmlns="http://www.w3.org/2000/svg" xmlns:xlink="http://www.w3.org/1999/xlink">
<g id="graph0" class="graph" transform="scale(1 1) rotate(0) translate(4 345)">
<title>dependencies</title>
<polygon fill="#ffffff" stroke="transparent" points="-4,4 -4,-345 960,-345 960,4 -4,4"/>
<text text-anchor="start" x="457.0091" y="-42.4" font-family="sans-serif" font-weight="bold" font-size="14.00" fill="#000000">Legend</text>
<polygon fill="#ffffb3" stroke="transparent" points="244,-10 244,-30 264,-30 264,-10 244,-10"/>
<text text-anchor="start" x="267.629" y="-15.4" font-family="sans-serif" font-size="14.00" fill="#000000"> &#160;Declarations</text>
<polygon fill="#8dd3c7" stroke="transparent" points="357,-10 357,-30 377,-30 377,-10 357,-10"/>
<text text-anchor="start" x="380.7251" y="-15.4" font-family="sans-serif" font-size="14.00" fill="#000000"> &#160;Module</text>
<polygon fill="#80b1d3" stroke="transparent" points="443,-10 443,-30 463,-30 463,-10 443,-10"/>
<text text-anchor="start" x="466.7812" y="-15.4" font-family="sans-serif" font-size="14.00" fill="#000000"> &#160;Bootstrap</text>
<polygon fill="#fdb462" stroke="transparent" points="540,-10 540,-30 560,-30 560,-10 540,-10"/>
<text text-anchor="start" x="563.6732" y="-15.4" font-family="sans-serif" font-size="14.00" fill="#000000"> &#160;Providers</text>
<polygon fill="#fb8072" stroke="transparent" points="636,-10 636,-30 656,-30 656,-10 636,-10"/>
<text text-anchor="start" x="659.7258" y="-15.4" font-family="sans-serif" font-size="14.00" fill="#000000"> &#160;Exports</text>
<g id="clust1" class="cluster">
<title>cluster_RFormModule</title>
<polygon fill="none" stroke="#000000" stroke-dasharray="1,5" points="8,-70 8,-333 948,-333 948,-70 8,-70"/>
</g>
<g id="clust2" class="cluster">
<title>cluster_RFormModule_declarations</title>
<polygon fill="none" stroke="#000000" points="30,-143 30,-195 579,-195 579,-143 30,-143"/>
</g>
<g id="clust3" class="cluster">
<title>cluster_RFormModule_DynamicFormComponent_providers</title>
<polygon fill="none" stroke="#000000" points="190,-78 190,-130 940,-130 940,-78 190,-78"/>
</g>
<g id="clust5" class="cluster">
<title>cluster_RFormModule_RFormComponent_providers</title>
<polygon fill="none" stroke="#000000" points="16,-78 16,-130 182,-130 182,-78 16,-78"/>
</g>
<g id="clust8" class="cluster">
<title>cluster_RFormModule_bootstrap</title>
<polygon fill="none" stroke="#000000" points="214,-273 214,-325 354,-325 354,-273 214,-273"/>
</g>
<!-- DynamicFormComponent -->
<g id="node1" class="node">
<title>DynamicFormComponent</title>
<polygon fill="#ffffb3" stroke="#000000" points="571.4832,-187 408.5168,-187 408.5168,-151 571.4832,-151 571.4832,-187"/>
<text text-anchor="middle" x="490" y="-164.8" font-family="Times,serif" font-size="14.00" fill="#000000">DynamicFormComponent</text>
</g>
<!-- RFormModule -->
<g id="node4" class="node">
<title>RFormModule</title>
<polygon fill="#8dd3c7" stroke="#000000" points="333.7204,-252 330.7204,-256 309.7204,-256 306.7204,-252 234.2796,-252 234.2796,-216 333.7204,-216 333.7204,-252"/>
<text text-anchor="middle" x="284" y="-229.8" font-family="Times,serif" font-size="14.00" fill="#000000">RFormModule</text>
</g>
<!-- DynamicFormComponent&#45;&gt;RFormModule -->
<g id="edge1" class="edge">
<title>DynamicFormComponent&#45;&gt;RFormModule</title>
<path fill="none" stroke="#000000" d="M490,-187.1061C490,-206.3391 490,-234 490,-234 490,-234 343.8669,-234 343.8669,-234"/>
<polygon fill="#000000" stroke="#000000" points="343.8669,-230.5001 333.8669,-234 343.8668,-237.5001 343.8669,-230.5001"/>
</g>
<!-- DynamicFormQuestionComponent -->
<g id="node2" class="node">
<title>DynamicFormQuestionComponent</title>
<polygon fill="#ffffb3" stroke="#000000" points="390.5307,-187 177.4693,-187 177.4693,-151 390.5307,-151 390.5307,-187"/>
<text text-anchor="middle" x="284" y="-164.8" font-family="Times,serif" font-size="14.00" fill="#000000">DynamicFormQuestionComponent</text>
</g>
<!-- DynamicFormQuestionComponent&#45;&gt;RFormModule -->
<g id="edge4" class="edge">
<title>DynamicFormQuestionComponent&#45;&gt;RFormModule</title>
<path fill="none" stroke="#000000" d="M284,-187.1061C284,-187.1061 284,-205.991 284,-205.991"/>
<polygon fill="#000000" stroke="#000000" points="280.5001,-205.9909 284,-215.991 287.5001,-205.991 280.5001,-205.9909"/>
</g>
<!-- RFormComponent -->
<g id="node3" class="node">
<title>RFormComponent</title>
<polygon fill="#ffffb3" stroke="#000000" points="159.5028,-187 38.4972,-187 38.4972,-151 159.5028,-151 159.5028,-187"/>
<text text-anchor="middle" x="99" y="-164.8" font-family="Times,serif" font-size="14.00" fill="#000000">RFormComponent</text>
</g>
<!-- RFormComponent&#45;&gt;RFormModule -->
<g id="edge5" class="edge">
<title>RFormComponent&#45;&gt;RFormModule</title>
<path fill="none" stroke="#000000" d="M99,-187.1061C99,-206.3391 99,-234 99,-234 99,-234 223.9363,-234 223.9363,-234"/>
<polygon fill="#000000" stroke="#000000" points="223.9364,-237.5001 233.9363,-234 223.9363,-230.5001 223.9364,-237.5001"/>
</g>
<!-- RFormComponent  -->
<g id="node8" class="node">
<title>RFormComponent </title>
<polygon fill="#80b1d3" stroke="#000000" points="346.0038,-317 221.9962,-317 221.9962,-281 346.0038,-281 346.0038,-317"/>
<text text-anchor="middle" x="284" y="-294.8" font-family="Times,serif" font-size="14.00" fill="#000000">RFormComponent </text>
</g>
<!-- RFormModule&#45;&gt;RFormComponent  -->
<g id="edge7" class="edge">
<title>RFormModule&#45;&gt;RFormComponent </title>
<path fill="none" stroke="#000000" stroke-dasharray="1,5" d="M284,-252.1061C284,-252.1061 284,-270.991 284,-270.991"/>
<polygon fill="#000000" stroke="#000000" points="280.5001,-270.9909 284,-280.991 287.5001,-270.991 280.5001,-270.9909"/>
</g>
<!-- QuestionControlService -->
<g id="node5" class="node">
<title>QuestionControlService</title>
<ellipse fill="#fdb462" stroke="#000000" cx="828" cy="-104" rx="104.2323" ry="18"/>
<text text-anchor="middle" x="828" y="-99.8" font-family="Times,serif" font-size="14.00" fill="#000000">QuestionControlService</text>
</g>
<!-- QuestionControlService&#45;&gt;DynamicFormComponent -->
<g id="edge2" class="edge">
<title>QuestionControlService&#45;&gt;DynamicFormComponent</title>
<path fill="none" stroke="#000000" d="M828,-122.1061C828,-141.3391 828,-169 828,-169 828,-169 581.8204,-169 581.8204,-169"/>
<polygon fill="#000000" stroke="#000000" points="581.8204,-165.5001 571.8204,-169 581.8203,-172.5001 581.8204,-165.5001"/>
</g>
<!-- { provide: LocationStrategy, useClass: PathLocationStrategy } -->
<g id="node6" class="node">
<title>{ provide: LocationStrategy, useClass: PathLocationStrategy }</title>
<ellipse fill="#fdb462" stroke="#000000" cx="452" cy="-104" rx="253.7592" ry="18"/>
<text text-anchor="middle" x="452" y="-99.8" font-family="Times,serif" font-size="14.00" fill="#000000">{ provide: LocationStrategy, useClass: PathLocationStrategy }</text>
</g>
<!-- { provide: LocationStrategy, useClass: PathLocationStrategy }&#45;&gt;DynamicFormComponent -->
<g id="edge3" class="edge">
<title>{ provide: LocationStrategy, useClass: PathLocationStrategy }&#45;&gt;DynamicFormComponent</title>
<path fill="none" stroke="#000000" d="M490,-122.1061C490,-122.1061 490,-140.991 490,-140.991"/>
<polygon fill="#000000" stroke="#000000" points="486.5001,-140.9909 490,-150.991 493.5001,-140.991 486.5001,-140.9909"/>
</g>
<!-- QuestionService -->
<g id="node7" class="node">
<title>QuestionService</title>
<ellipse fill="#fdb462" stroke="#000000" cx="99" cy="-104" rx="74.7168" ry="18"/>
<text text-anchor="middle" x="99" y="-99.8" font-family="Times,serif" font-size="14.00" fill="#000000">QuestionService</text>
</g>
<!-- QuestionService&#45;&gt;RFormComponent -->
<g id="edge6" class="edge">
<title>QuestionService&#45;&gt;RFormComponent</title>
<path fill="none" stroke="#000000" d="M99,-122.1061C99,-122.1061 99,-140.991 99,-140.991"/>
<polygon fill="#000000" stroke="#000000" points="95.5001,-140.9909 99,-150.991 102.5001,-140.991 95.5001,-140.9909"/>
</g>
</g>
</svg>
