<?xml version="1.0" encoding="UTF-8" standalone="no"?>
<!DOCTYPE svg PUBLIC "-//W3C//DTD SVG 1.1//EN"
 "http://www.w3.org/Graphics/SVG/1.1/DTD/svg11.dtd">
<!-- Generated by graphviz version 2.40.1 (20161225.0304)
 -->
<!-- Title: dependencies Pages: 1 -->
<svg width="790pt" height="349pt"
 viewBox="0.00 0.00 790.00 349.00" xmlns="http://www.w3.org/2000/svg" xmlns:xlink="http://www.w3.org/1999/xlink">
<g id="graph0" class="graph" transform="scale(1 1) rotate(0) translate(4 345)">
<title>dependencies</title>
<polygon fill="#ffffff" stroke="transparent" points="-4,4 -4,-345 786,-345 786,4 -4,4"/>
<text text-anchor="start" x="370.0091" y="-42.4" font-family="sans-serif" font-weight="bold" font-size="14.00" fill="#000000">Legend</text>
<polygon fill="#ffffb3" stroke="transparent" points="157,-10 157,-30 177,-30 177,-10 157,-10"/>
<text text-anchor="start" x="180.629" y="-15.4" font-family="sans-serif" font-size="14.00" fill="#000000"> &#160;Declarations</text>
<polygon fill="#8dd3c7" stroke="transparent" points="270,-10 270,-30 290,-30 290,-10 270,-10"/>
<text text-anchor="start" x="293.7251" y="-15.4" font-family="sans-serif" font-size="14.00" fill="#000000"> &#160;Module</text>
<polygon fill="#80b1d3" stroke="transparent" points="356,-10 356,-30 376,-30 376,-10 356,-10"/>
<text text-anchor="start" x="379.7812" y="-15.4" font-family="sans-serif" font-size="14.00" fill="#000000"> &#160;Bootstrap</text>
<polygon fill="#fdb462" stroke="transparent" points="453,-10 453,-30 473,-30 473,-10 453,-10"/>
<text text-anchor="start" x="476.6732" y="-15.4" font-family="sans-serif" font-size="14.00" fill="#000000"> &#160;Providers</text>
<polygon fill="#fb8072" stroke="transparent" points="549,-10 549,-30 569,-30 569,-10 549,-10"/>
<text text-anchor="start" x="572.7258" y="-15.4" font-family="sans-serif" font-size="14.00" fill="#000000"> &#160;Exports</text>
<g id="clust1" class="cluster">
<title>cluster_RFormModule</title>
<polygon fill="none" stroke="#000000" stroke-dasharray="1,5" points="8,-70 8,-333 774,-333 774,-70 8,-70"/>
</g>
<g id="clust2" class="cluster">
<title>cluster_RFormModule_declarations</title>
<polygon fill="none" stroke="#000000" points="105,-143 105,-195 654,-195 654,-143 105,-143"/>
</g>
<g id="clust3" class="cluster">
<title>cluster_RFormModule_DynamicFormComponent_providers</title>
<polygon fill="none" stroke="#000000" points="16,-78 16,-130 766,-130 766,-78 16,-78"/>
</g>
<g id="clust8" class="cluster">
<title>cluster_RFormModule_bootstrap</title>
<polygon fill="none" stroke="#000000" points="289,-273 289,-325 429,-325 429,-273 289,-273"/>
</g>
<!-- DynamicFormComponent -->
<g id="node1" class="node">
<title>DynamicFormComponent</title>
<polygon fill="#ffffb3" stroke="#000000" points="646.4832,-187 483.5168,-187 483.5168,-151 646.4832,-151 646.4832,-187"/>
<text text-anchor="middle" x="565" y="-164.8" font-family="Times,serif" font-size="14.00" fill="#000000">DynamicFormComponent</text>
</g>
<!-- RFormModule -->
<g id="node4" class="node">
<title>RFormModule</title>
<polygon fill="#8dd3c7" stroke="#000000" points="408.7204,-252 405.7204,-256 384.7204,-256 381.7204,-252 309.2796,-252 309.2796,-216 408.7204,-216 408.7204,-252"/>
<text text-anchor="middle" x="359" y="-229.8" font-family="Times,serif" font-size="14.00" fill="#000000">RFormModule</text>
</g>
<!-- DynamicFormComponent&#45;&gt;RFormModule -->
<g id="edge1" class="edge">
<title>DynamicFormComponent&#45;&gt;RFormModule</title>
<path fill="none" stroke="#000000" d="M565,-187.1061C565,-206.3391 565,-234 565,-234 565,-234 418.8669,-234 418.8669,-234"/>
<polygon fill="#000000" stroke="#000000" points="418.8669,-230.5001 408.8669,-234 418.8668,-237.5001 418.8669,-230.5001"/>
</g>
<!-- DynamicFormQuestionComponent -->
<g id="node2" class="node">
<title>DynamicFormQuestionComponent</title>
<polygon fill="#ffffb3" stroke="#000000" points="465.5307,-187 252.4693,-187 252.4693,-151 465.5307,-151 465.5307,-187"/>
<text text-anchor="middle" x="359" y="-164.8" font-family="Times,serif" font-size="14.00" fill="#000000">DynamicFormQuestionComponent</text>
</g>
<!-- DynamicFormQuestionComponent&#45;&gt;RFormModule -->
<g id="edge4" class="edge">
<title>DynamicFormQuestionComponent&#45;&gt;RFormModule</title>
<path fill="none" stroke="#000000" d="M359,-187.1061C359,-187.1061 359,-205.991 359,-205.991"/>
<polygon fill="#000000" stroke="#000000" points="355.5001,-205.9909 359,-215.991 362.5001,-205.991 355.5001,-205.9909"/>
</g>
<!-- RFormComponent -->
<g id="node3" class="node">
<title>RFormComponent</title>
<polygon fill="#ffffb3" stroke="#000000" points="234.5028,-187 113.4972,-187 113.4972,-151 234.5028,-151 234.5028,-187"/>
<text text-anchor="middle" x="174" y="-164.8" font-family="Times,serif" font-size="14.00" fill="#000000">RFormComponent</text>
</g>
<!-- RFormComponent&#45;&gt;RFormModule -->
<g id="edge5" class="edge">
<title>RFormComponent&#45;&gt;RFormModule</title>
<path fill="none" stroke="#000000" d="M174,-187.1061C174,-206.3391 174,-234 174,-234 174,-234 298.9363,-234 298.9363,-234"/>
<polygon fill="#000000" stroke="#000000" points="298.9364,-237.5001 308.9363,-234 298.9363,-230.5001 298.9364,-237.5001"/>
</g>
<!-- RFormComponent  -->
<g id="node7" class="node">
<title>RFormComponent </title>
<polygon fill="#80b1d3" stroke="#000000" points="421.0038,-317 296.9962,-317 296.9962,-281 421.0038,-281 421.0038,-317"/>
<text text-anchor="middle" x="359" y="-294.8" font-family="Times,serif" font-size="14.00" fill="#000000">RFormComponent </text>
</g>
<!-- RFormModule&#45;&gt;RFormComponent  -->
<g id="edge6" class="edge">
<title>RFormModule&#45;&gt;RFormComponent </title>
<path fill="none" stroke="#000000" stroke-dasharray="1,5" d="M359,-252.1061C359,-252.1061 359,-270.991 359,-270.991"/>
<polygon fill="#000000" stroke="#000000" points="355.5001,-270.9909 359,-280.991 362.5001,-270.991 355.5001,-270.9909"/>
</g>
<!-- QuestionControlService -->
<g id="node5" class="node">
<title>QuestionControlService</title>
<ellipse fill="#fdb462" stroke="#000000" cx="654" cy="-104" rx="104.2323" ry="18"/>
<text text-anchor="middle" x="654" y="-99.8" font-family="Times,serif" font-size="14.00" fill="#000000">QuestionControlService</text>
</g>
<!-- QuestionControlService&#45;&gt;DynamicFormComponent -->
<g id="edge2" class="edge">
<title>QuestionControlService&#45;&gt;DynamicFormComponent</title>
<path fill="none" stroke="#000000" d="M598.0628,-119.4041C598.0628,-119.4041 598.0628,-140.9397 598.0628,-140.9397"/>
<polygon fill="#000000" stroke="#000000" points="594.5629,-140.9397 598.0628,-150.9397 601.5629,-140.9398 594.5629,-140.9397"/>
</g>
<!-- { provide: LocationStrategy, useClass: PathLocationStrategy } -->
<g id="node6" class="node">
<title>{ provide: LocationStrategy, useClass: PathLocationStrategy }</title>
<ellipse fill="#fdb462" stroke="#000000" cx="278" cy="-104" rx="253.7592" ry="18"/>
<text text-anchor="middle" x="278" y="-99.8" font-family="Times,serif" font-size="14.00" fill="#000000">{ provide: LocationStrategy, useClass: PathLocationStrategy }</text>
</g>
<!-- { provide: LocationStrategy, useClass: PathLocationStrategy }&#45;&gt;DynamicFormComponent -->
<g id="edge3" class="edge">
<title>{ provide: LocationStrategy, useClass: PathLocationStrategy }&#45;&gt;DynamicFormComponent</title>
<path fill="none" stroke="#000000" d="M507.569,-111.7116C507.569,-111.7116 507.569,-140.9896 507.569,-140.9896"/>
<polygon fill="#000000" stroke="#000000" points="504.0691,-140.9896 507.569,-150.9896 511.0691,-140.9897 504.0691,-140.9896"/>
</g>
</g>
</svg>
