<?xml version="1.0" encoding="UTF-8" standalone="no"?>
<!DOCTYPE svg PUBLIC "-//W3C//DTD SVG 1.1//EN"
 "http://www.w3.org/Graphics/SVG/1.1/DTD/svg11.dtd">
<!-- Generated by graphviz version 2.40.1 (20161225.0304)
 -->
<!-- Title: dependencies Pages: 1 -->
<svg width="1307pt" height="284pt"
 viewBox="0.00 0.00 1307.00 284.00" xmlns="http://www.w3.org/2000/svg" xmlns:xlink="http://www.w3.org/1999/xlink">
<g id="graph0" class="graph" transform="scale(1 1) rotate(0) translate(4 280)">
<title>dependencies</title>
<polygon fill="#ffffff" stroke="transparent" points="-4,4 -4,-280 1303,-280 1303,4 -4,4"/>
<text text-anchor="start" x="628.5091" y="-42.4" font-family="sans-serif" font-weight="bold" font-size="14.00" fill="#000000">Legend</text>
<polygon fill="#ffffb3" stroke="transparent" points="415.5,-10 415.5,-30 435.5,-30 435.5,-10 415.5,-10"/>
<text text-anchor="start" x="439.129" y="-15.4" font-family="sans-serif" font-size="14.00" fill="#000000"> &#160;Declarations</text>
<polygon fill="#8dd3c7" stroke="transparent" points="528.5,-10 528.5,-30 548.5,-30 548.5,-10 528.5,-10"/>
<text text-anchor="start" x="552.2251" y="-15.4" font-family="sans-serif" font-size="14.00" fill="#000000"> &#160;Module</text>
<polygon fill="#80b1d3" stroke="transparent" points="614.5,-10 614.5,-30 634.5,-30 634.5,-10 614.5,-10"/>
<text text-anchor="start" x="638.2812" y="-15.4" font-family="sans-serif" font-size="14.00" fill="#000000"> &#160;Bootstrap</text>
<polygon fill="#fdb462" stroke="transparent" points="711.5,-10 711.5,-30 731.5,-30 731.5,-10 711.5,-10"/>
<text text-anchor="start" x="735.1732" y="-15.4" font-family="sans-serif" font-size="14.00" fill="#000000"> &#160;Providers</text>
<polygon fill="#fb8072" stroke="transparent" points="807.5,-10 807.5,-30 827.5,-30 827.5,-10 807.5,-10"/>
<text text-anchor="start" x="831.2258" y="-15.4" font-family="sans-serif" font-size="14.00" fill="#000000"> &#160;Exports</text>
<g id="clust1" class="cluster">
<title>cluster_AppModule</title>
<polygon fill="none" stroke="#000000" stroke-dasharray="1,5" points="8,-70 8,-268 1291,-268 1291,-70 8,-70"/>
</g>
<g id="clust2" class="cluster">
<title>cluster_AppModule_declarations</title>
<polygon fill="none" stroke="#000000" points="792,-78 792,-130 1283,-130 1283,-78 792,-78"/>
</g>
<g id="clust6" class="cluster">
<title>cluster_AppModule_imports</title>
<polygon fill="none" stroke="#000000" points="424,-78 424,-130 784,-130 784,-78 424,-78"/>
</g>
<g id="clust8" class="cluster">
<title>cluster_AppModule_bootstrap</title>
<polygon fill="none" stroke="#000000" points="588,-208 588,-260 712,-260 712,-208 588,-208"/>
</g>
<g id="clust9" class="cluster">
<title>cluster_AppModule_providers</title>
<polygon fill="none" stroke="#000000" points="16,-78 16,-130 416,-130 416,-78 16,-78"/>
</g>
<!-- AppComponent -->
<g id="node1" class="node">
<title>AppComponent</title>
<polygon fill="#ffffb3" stroke="#000000" points="1274.9399,-122 1169.0601,-122 1169.0601,-86 1274.9399,-86 1274.9399,-122"/>
<text text-anchor="middle" x="1222" y="-99.8" font-family="Times,serif" font-size="14.00" fill="#000000">AppComponent</text>
</g>
<!-- AppModule -->
<g id="node4" class="node">
<title>AppModule</title>
<polygon fill="#8dd3c7" stroke="#000000" points="691.6571,-187 688.6571,-191 667.6571,-191 664.6571,-187 608.3429,-187 608.3429,-151 691.6571,-151 691.6571,-187"/>
<text text-anchor="middle" x="650" y="-164.8" font-family="Times,serif" font-size="14.00" fill="#000000">AppModule</text>
</g>
<!-- AppComponent&#45;&gt;AppModule -->
<g id="edge1" class="edge">
<title>AppComponent&#45;&gt;AppModule</title>
<path fill="none" stroke="#000000" d="M1222,-122.2921C1222,-144.2057 1222,-178 1222,-178 1222,-178 702.0605,-178 702.0605,-178"/>
<polygon fill="#000000" stroke="#000000" points="702.0606,-174.5001 692.0605,-178 702.0605,-181.5001 702.0606,-174.5001"/>
</g>
<!-- CountdownSnackbarComponent -->
<g id="node2" class="node">
<title>CountdownSnackbarComponent</title>
<polygon fill="#ffffb3" stroke="#000000" points="1151.2534,-122 952.7466,-122 952.7466,-86 1151.2534,-86 1151.2534,-122"/>
<text text-anchor="middle" x="1052" y="-99.8" font-family="Times,serif" font-size="14.00" fill="#000000">CountdownSnackbarComponent</text>
</g>
<!-- CountdownSnackbarComponent&#45;&gt;AppModule -->
<g id="edge2" class="edge">
<title>CountdownSnackbarComponent&#45;&gt;AppModule</title>
<path fill="none" stroke="#000000" d="M1052,-122.1061C1052,-141.3391 1052,-169 1052,-169 1052,-169 701.8834,-169 701.8834,-169"/>
<polygon fill="#000000" stroke="#000000" points="701.8834,-165.5001 691.8834,-169 701.8834,-172.5001 701.8834,-165.5001"/>
</g>
<!-- WelcomeComponent -->
<g id="node3" class="node">
<title>WelcomeComponent</title>
<polygon fill="#ffffb3" stroke="#000000" points="934.472,-122 799.528,-122 799.528,-86 934.472,-86 934.472,-122"/>
<text text-anchor="middle" x="867" y="-99.8" font-family="Times,serif" font-size="14.00" fill="#000000">WelcomeComponent</text>
</g>
<!-- WelcomeComponent&#45;&gt;AppModule -->
<g id="edge3" class="edge">
<title>WelcomeComponent&#45;&gt;AppModule</title>
<path fill="none" stroke="#000000" d="M867,-122.027C867,-138.3976 867,-160 867,-160 867,-160 701.8398,-160 701.8398,-160"/>
<polygon fill="#000000" stroke="#000000" points="701.8398,-156.5001 691.8398,-160 701.8397,-163.5001 701.8398,-156.5001"/>
</g>
<!-- AppComponent  -->
<g id="node8" class="node">
<title>AppComponent </title>
<polygon fill="#80b1d3" stroke="#000000" points="704.439,-252 595.561,-252 595.561,-216 704.439,-216 704.439,-252"/>
<text text-anchor="middle" x="650" y="-229.8" font-family="Times,serif" font-size="14.00" fill="#000000">AppComponent </text>
</g>
<!-- AppModule&#45;&gt;AppComponent  -->
<g id="edge7" class="edge">
<title>AppModule&#45;&gt;AppComponent </title>
<path fill="none" stroke="#000000" stroke-dasharray="1,5" d="M650,-187.1061C650,-187.1061 650,-205.991 650,-205.991"/>
<polygon fill="#000000" stroke="#000000" points="646.5001,-205.9909 650,-215.991 653.5001,-205.991 646.5001,-205.9909"/>
</g>
<!-- FileUploadModule -->
<g id="node5" class="node">
<title>FileUploadModule</title>
<polygon fill="#8dd3c7" stroke="#000000" points="776.0409,-122 773.0409,-126 752.0409,-126 749.0409,-122 653.9591,-122 653.9591,-86 776.0409,-86 776.0409,-122"/>
<text text-anchor="middle" x="715" y="-99.8" font-family="Times,serif" font-size="14.00" fill="#000000">FileUploadModule</text>
</g>
<!-- FileUploadModule&#45;&gt;AppModule -->
<g id="edge4" class="edge">
<title>FileUploadModule&#45;&gt;AppModule</title>
<path fill="none" stroke="#000000" d="M672.7791,-122.1061C672.7791,-122.1061 672.7791,-140.991 672.7791,-140.991"/>
<polygon fill="#000000" stroke="#000000" points="669.2792,-140.9909 672.7791,-150.991 676.2792,-140.991 669.2792,-140.9909"/>
</g>
<!-- RFormModule -->
<g id="node6" class="node">
<title>RFormModule</title>
<polygon fill="#8dd3c7" stroke="#000000" points="635.7204,-122 632.7204,-126 611.7204,-126 608.7204,-122 536.2796,-122 536.2796,-86 635.7204,-86 635.7204,-122"/>
<text text-anchor="middle" x="586" y="-99.8" font-family="Times,serif" font-size="14.00" fill="#000000">RFormModule</text>
</g>
<!-- RFormModule&#45;&gt;AppModule -->
<g id="edge5" class="edge">
<title>RFormModule&#45;&gt;AppModule</title>
<path fill="none" stroke="#000000" d="M621.891,-122.1061C621.891,-122.1061 621.891,-140.991 621.891,-140.991"/>
<polygon fill="#000000" stroke="#000000" points="618.391,-140.9909 621.891,-150.991 625.391,-140.991 618.391,-140.9909"/>
</g>
<!-- UserModule -->
<g id="node7" class="node">
<title>UserModule</title>
<polygon fill="#8dd3c7" stroke="#000000" points="517.9762,-122 514.9762,-126 493.9762,-126 490.9762,-122 432.0238,-122 432.0238,-86 517.9762,-86 517.9762,-122"/>
<text text-anchor="middle" x="475" y="-99.8" font-family="Times,serif" font-size="14.00" fill="#000000">UserModule</text>
</g>
<!-- UserModule&#45;&gt;AppModule -->
<g id="edge6" class="edge">
<title>UserModule&#45;&gt;AppModule</title>
<path fill="none" stroke="#000000" d="M475,-122.027C475,-138.3976 475,-160 475,-160 475,-160 598.0831,-160 598.0831,-160"/>
<polygon fill="#000000" stroke="#000000" points="598.0832,-163.5001 608.0831,-160 598.0831,-156.5001 598.0832,-163.5001"/>
</g>
<!-- CountdownService -->
<g id="node9" class="node">
<title>CountdownService</title>
<ellipse fill="#fdb462" stroke="#000000" cx="323" cy="-104" rx="85.1159" ry="18"/>
<text text-anchor="middle" x="323" y="-99.8" font-family="Times,serif" font-size="14.00" fill="#000000">CountdownService</text>
</g>
<!-- CountdownService&#45;&gt;AppModule -->
<g id="edge8" class="edge">
<title>CountdownService&#45;&gt;AppModule</title>
<path fill="none" stroke="#000000" d="M323,-122.1061C323,-141.3391 323,-169 323,-169 323,-169 598.2531,-169 598.2531,-169"/>
<polygon fill="#000000" stroke="#000000" points="598.2531,-172.5001 608.2531,-169 598.253,-165.5001 598.2531,-172.5001"/>
</g>
<!-- StateParameterService -->
<g id="node10" class="node">
<title>StateParameterService</title>
<ellipse fill="#fdb462" stroke="#000000" cx="122" cy="-104" rx="98.3831" ry="18"/>
<text text-anchor="middle" x="122" y="-99.8" font-family="Times,serif" font-size="14.00" fill="#000000">StateParameterService</text>
</g>
<!-- StateParameterService&#45;&gt;AppModule -->
<g id="edge9" class="edge">
<title>StateParameterService&#45;&gt;AppModule</title>
<path fill="none" stroke="#000000" d="M122,-122.2921C122,-144.2057 122,-178 122,-178 122,-178 598.1274,-178 598.1274,-178"/>
<polygon fill="#000000" stroke="#000000" points="598.1274,-181.5001 608.1274,-178 598.1274,-174.5001 598.1274,-181.5001"/>
</g>
</g>
</svg>
